<svg width="326" height="343" viewBox="0 0 326 343" fill="none" xmlns="http://www.w3.org/2000/svg">
<rect x="14" y="50.5321" width="298" height="273.468" fill="#00C2FF"/>
<path d="M56.0491 127.184H100.84V147.604C100.84 159.973 90.8136 170 78.4448 170V170C66.076 170 56.0491 159.973 56.0491 147.604V127.184Z" fill="#323536" fill-opacity="0.32"/>
<path d="M99.9264 127.184H141.975V148.975C141.975 160.587 132.562 170 120.951 170V170C109.339 170 99.9264 160.587 99.9264 148.975V127.184Z" fill="#323536" fill-opacity="0.32"/>
<path d="M141.975 127.184H184.025V148.975C184.025 160.587 174.612 170 163 170V170C151.388 170 141.975 160.587 141.975 148.975V127.184Z" fill="#323536" fill-opacity="0.32"/>
<path d="M184.025 127.184H227.902V148.061C227.902 160.178 218.08 170 205.963 170V170C193.847 170 184.025 160.178 184.025 148.061V127.184Z" fill="#323536" fill-opacity="0.32"/>
<path d="M227.902 127.184H269.951V148.975C269.951 160.587 260.538 170 248.926 170V170C237.315 170 227.902 160.587 227.902 148.975V127.184Z" fill="#323536" fill-opacity="0.32"/>
<path d="M269.951 127.184H312V148.975C312 160.587 302.587 170 290.975 170V170C279.364 170 269.951 160.587 269.951 148.975V127.184Z" fill="#323536" fill-opacity="0.32"/>
<path d="M14 127.184H56.0491V148.975C56.0491 160.587 46.6361 170 35.0245 170V170C23.413 170 14 160.587 14 148.975V127.184Z" fill="#323536" fill-opacity="0.32"/>
<path d="M46 59.4495H105L95 113.945H46V59.4495Z" fill="#FBFBFB"/>
<path d="M104 59.4495H145L140 113.945H94L104 59.4495Z" fill="#0EC8F1"/>
<path d="M145 59.4495H181L186 113.945H140L145 59.4495Z" fill="#FBFBFB"/>
<path d="M180 59.4495H234V113.945H186L180 59.4495Z" fill="#0EC8F1"/>
<path d="M224 59.4495H265L280 113.945H234L224 59.4495Z" fill="#FBFBFB"/>
<path d="M265 59.4495H311L326 113.945H280L265 59.4495Z" fill="#0EC8F1"/>
<path d="M15 59.4495H61L46 113.945H0L15 59.4495Z" fill="#0EC8F1"/>
<path d="M46 113.945H95V135.5C95 149.031 84.031 160 70.5 160V160C56.969 160 46 149.031 46 135.5V113.945Z" fill="#EEEAEA"/>
<path d="M94 113.945H140V137C140 149.703 129.703 160 117 160V160C104.297 160 94 149.703 94 137V113.945Z" fill="#1AC1E5"/>
<path d="M140 113.945H186V137C186 149.703 175.703 160 163 160V160C150.297 160 140 149.703 140 137V113.945Z" fill="#EEEAEA"/>
<path d="M186 113.945H234V136C234 149.255 223.255 160 210 160V160C196.745 160 186 149.255 186 136V113.945Z" fill="#1AC1E5"/>
<path d="M234 113.945H280V137C280 149.703 269.703 160 257 160V160C244.297 160 234 149.703 234 137V113.945Z" fill="#EEEAEA"/>
<path d="M280 113.945H326V137C326 149.703 315.703 160 303 160V160C290.297 160 280 149.703 280 137V113.945Z" fill="#1AC1E5"/>
<path d="M0 113.945H46V137C46 149.703 35.7025 160 23 160V160C10.2975 160 0 149.703 0 137V113.945Z" fill="#1AC1E5"/>
<path d="M41 202.174C41 199.413 43.2386 197.174 46 197.174H120C122.761 197.174 125 199.413 125 202.174V324H41V202.174Z" fill="#C4C4C4"/>
<path d="M41 202.174C41 199.413 43.2386 197.174 46 197.174H120C122.761 197.174 125 199.413 125 202.174V324H41V202.174Z" fill="white"/>
<path d="M145 202.174C145 199.413 147.239 197.174 150 197.174H289C291.761 197.174 294 199.413 294 202.174V279.367C294 282.128 291.761 284.367 289 284.367H150C147.239 284.367 145 282.128 145 279.367V202.174Z" fill="#00B2FF"/>
<path d="M145 202.174C145 199.413 147.239 197.174 150 197.174H263.17C266.823 197.174 269.243 200.964 267.706 204.278L254.771 232.173C254.273 233.246 253.411 234.108 252.338 234.605L152.103 281.074C148.789 282.61 145 280.19 145 276.538V202.174Z" fill="#C0EAFC"/>
<rect x="14" y="41.6147" width="298" height="8.91743" fill="#556E94"/>
<path d="M14 5.00001C14 2.23858 16.2386 0 19 0H307C309.761 0 312 2.23858 312 5V41.6147H14V5.00001Z" fill="#00C2FF"/>
<path d="M46.5762 27.6055H38.8711L37.4062 32H32.7334L40.6729 10.6719H44.7451L52.7285 32H48.0557L46.5762 27.6055ZM40.0576 24.0459H45.3896L42.709 16.0625L40.0576 24.0459ZM59.877 20.2812L64.3154 10.6719H69.1201L62.1182 24.2656V32H57.6504V24.2656L50.6484 10.6719H55.4678L59.877 20.2812ZM80.9121 27.6055H73.207L71.7422 32H67.0693L75.0088 10.6719H79.0811L87.0645 32H82.3916L80.9121 27.6055ZM74.3936 24.0459H79.7256L77.0449 16.0625L74.3936 24.0459ZM94.7988 10.6719L100.277 26.1406L105.727 10.6719H111.498V32H107.089V26.1699L107.528 16.1064L101.771 32H98.7539L93.0117 16.1211L93.4512 26.1699V32H89.0566V10.6719H94.7988ZM122.807 32V10.6719H130.277C132.865 10.6719 134.828 11.1699 136.166 12.166C137.504 13.1523 138.173 14.6025 138.173 16.5166C138.173 17.5615 137.904 18.4844 137.367 19.2852C136.83 20.0762 136.083 20.6572 135.126 21.0283C136.22 21.3018 137.079 21.8535 137.704 22.6836C138.339 23.5137 138.656 24.5293 138.656 25.7305C138.656 27.7812 138.002 29.334 136.693 30.3887C135.385 31.4434 133.52 31.9805 131.098 32H122.807ZM127.201 22.7129V28.4697H130.966C132.001 28.4697 132.807 28.2256 133.383 27.7373C133.969 27.2393 134.262 26.5557 134.262 25.6865C134.262 23.7334 133.251 22.7422 131.229 22.7129H127.201ZM127.201 19.6074H130.453C132.67 19.5684 133.778 18.6846 133.778 16.9561C133.778 15.9893 133.495 15.2959 132.929 14.876C132.372 14.4463 131.488 14.2314 130.277 14.2314H127.201V19.6074ZM154.008 27.6055H146.303L144.838 32H140.165L148.104 10.6719H152.177L160.16 32H155.487L154.008 27.6055ZM147.489 24.0459H152.821L150.141 16.0625L147.489 24.0459ZM168.832 23.4453L166.547 25.9062V32H162.152V10.6719H166.547V20.3398L168.48 17.6885L173.915 10.6719H179.32L171.747 20.1494L179.54 32H174.311L168.832 23.4453ZM193.236 27.6055H185.531L184.066 32H179.394L187.333 10.6719H191.405L199.389 32H194.716L193.236 27.6055ZM186.718 24.0459H192.05L189.369 16.0625L186.718 24.0459ZM209.276 24.1924H205.775V32H201.381V10.6719H209.306C211.825 10.6719 213.769 11.2334 215.136 12.3564C216.503 13.4795 217.187 15.0664 217.187 17.1172C217.187 18.5723 216.869 19.7881 216.234 20.7646C215.609 21.7314 214.657 22.5029 213.378 23.0791L217.992 31.7949V32H213.275L209.276 24.1924ZM205.775 20.6328H209.32C210.424 20.6328 211.278 20.3545 211.884 19.7979C212.489 19.2314 212.792 18.4551 212.792 17.4688C212.792 16.4629 212.504 15.6719 211.928 15.0957C211.361 14.5195 210.487 14.2314 209.306 14.2314H205.775V20.6328ZM228.012 32V10.6719H235.482C238.07 10.6719 240.033 11.1699 241.371 12.166C242.709 13.1523 243.378 14.6025 243.378 16.5166C243.378 17.5615 243.109 18.4844 242.572 19.2852C242.035 20.0762 241.288 20.6572 240.331 21.0283C241.425 21.3018 242.284 21.8535 242.909 22.6836C243.544 23.5137 243.861 24.5293 243.861 25.7305C243.861 27.7812 243.207 29.334 241.898 30.3887C240.59 31.4434 238.725 31.9805 236.303 32H228.012ZM232.406 22.7129V28.4697H236.171C237.206 28.4697 238.012 28.2256 238.588 27.7373C239.174 27.2393 239.467 26.5557 239.467 25.6865C239.467 23.7334 238.456 22.7422 236.435 22.7129H232.406ZM232.406 19.6074H235.658C237.875 19.5684 238.983 18.6846 238.983 16.9561C238.983 15.9893 238.7 15.2959 238.134 14.876C237.577 14.4463 236.693 14.2314 235.482 14.2314H232.406V19.6074ZM255.126 24.5732H246.879V21.1602H255.126V24.5732ZM267.401 10.6719H271.796V25.4375C271.796 26.7949 271.493 27.9961 270.888 29.041C270.292 30.0762 269.447 30.877 268.354 31.4434C267.26 32.0098 266.024 32.293 264.647 32.293C262.392 32.293 260.634 31.7217 259.374 30.5791C258.114 29.4268 257.484 27.8008 257.484 25.7012H261.908C261.908 26.7461 262.128 27.5176 262.567 28.0156C263.007 28.5137 263.7 28.7627 264.647 28.7627C265.487 28.7627 266.156 28.4746 266.654 27.8984C267.152 27.3223 267.401 26.502 267.401 25.4375V10.6719ZM293.08 21.8193C293.08 23.9189 292.709 25.7598 291.967 27.3418C291.225 28.9238 290.16 30.1445 288.773 31.0039C287.396 31.8633 285.814 32.293 284.027 32.293C282.26 32.293 280.683 31.8682 279.296 31.0186C277.909 30.1689 276.835 28.958 276.073 27.3857C275.312 25.8037 274.926 23.9873 274.916 21.9365V20.8818C274.916 18.7822 275.292 16.9365 276.044 15.3447C276.806 13.7432 277.875 12.5176 279.252 11.668C280.639 10.8086 282.221 10.3789 283.998 10.3789C285.775 10.3789 287.353 10.8086 288.729 11.668C290.116 12.5176 291.186 13.7432 291.938 15.3447C292.699 16.9365 293.08 18.7773 293.08 20.8672V21.8193ZM288.627 20.8525C288.627 18.6162 288.227 16.917 287.426 15.7549C286.625 14.5928 285.482 14.0117 283.998 14.0117C282.523 14.0117 281.386 14.5879 280.585 15.7402C279.784 16.8828 279.379 18.5625 279.369 20.7793V21.8193C279.369 23.9971 279.77 25.6865 280.57 26.8877C281.371 28.0889 282.523 28.6895 284.027 28.6895C285.502 28.6895 286.635 28.1133 287.426 26.9609C288.217 25.7988 288.617 24.1094 288.627 21.8926V20.8525Z" fill="white"/>
<path d="M7 316C7 313.239 9.23858 311 12 311H314C316.761 311 319 313.239 319 316V324H7V316Z" fill="#556E94"/>
</svg>
